HIERARCHY
ROOT teapot2
{
	OFFSET 0.000000 0.000000 0.000000
	CHANNELS 6 Xposition Yposition Zposition Yrotation Xrotation Zrotation
	End Site
	{
		OFFSET 0.000000 0.000000 0.000000
	}
}
MOTION
Frames: 85
Frame Time: 0.008333334
2.692009 4.891900 4.401378 79.061910 -63.175660 -38.567290 
2.687554 4.885325 4.391637 77.973300 -62.570560 -37.337100 
2.682111 4.878380 4.381284 77.168370 -61.900510 -36.420680 
2.676065 4.871007 4.370124 76.202730 -60.994450 -35.256650 
2.668502 4.863226 4.357129 75.400830 -60.199490 -34.344020 
2.660754 4.855794 4.343329 74.640630 -59.245640 -33.484070 
2.652320 4.848338 4.327448 73.451520 -58.168400 -32.260530 
2.645087 4.839422 4.310800 72.390390 -57.200840 -31.016170 
2.636748 4.831599 4.292440 71.134030 -56.074680 -29.817470 
2.628520 4.823536 4.272574 69.841310 -54.920200 -28.602230 
2.620748 4.814955 4.251812 68.615100 -53.754430 -27.358370 
2.612179 4.806478 4.229745 67.360850 -52.603060 -26.105040 
2.603870 4.797513 4.206358 66.208820 -51.325260 -25.063170 
2.594501 4.788601 4.181564 65.014120 -49.912720 -23.965970 
2.584324 4.778897 4.155810 64.102420 -48.560360 -22.987640 
2.573560 4.769218 4.129264 63.260070 -47.094670 -22.109010 
2.562149 4.758816 4.101958 62.425720 -45.549960 -21.165470 
2.549955 4.748364 4.073239 61.600630 -43.889340 -20.056240 
2.538074 4.737721 4.043860 60.833340 -42.266480 -18.963440 
2.524860 4.727151 4.014431 59.901200 -40.492000 -17.815190 
2.512481 4.716833 3.983621 59.116120 -38.810730 -16.632290 
2.499495 4.706190 3.952774 58.369550 -37.065220 -15.548650 
2.486209 4.695065 3.921680 57.596050 -35.258580 -14.454160 
2.473018 4.684466 3.890154 56.937380 -33.576230 -13.327360 
2.459726 4.673815 3.858595 56.282500 -31.817350 -12.280460 
2.446616 4.663596 3.826760 55.509740 -30.059720 -11.195590 
2.432957 4.653749 3.794857 54.861220 -28.303710 -10.159060 
2.419949 4.643931 3.763488 54.349810 -26.684840 -9.100616 
2.405742 4.634716 3.732836 53.728070 -24.855220 -8.069397 
2.392660 4.625417 3.702856 53.225220 -23.202120 -7.085724 
2.379607 4.615851 3.673411 52.644410 -21.522310 -6.101715 
2.367656 4.606448 3.644924 52.163510 -19.945250 -5.174744 
2.356596 4.596853 3.616433 51.569160 -18.414310 -4.354187 
2.346076 4.587634 3.588898 51.011130 -16.866460 -3.611511 
2.336515 4.578416 3.561714 50.360250 -15.426480 -2.969055 
2.327610 4.569360 3.535339 49.662820 -13.937870 -2.400574 
2.319447 4.559905 3.509707 48.978970 -12.600560 -1.822662 
2.311482 4.550482 3.485649 48.307040 -11.311800 -1.398560 
2.303284 4.540792 3.462051 47.649810 -10.017550 -0.904877 
2.296026 4.531361 3.439944 47.080380 -8.761108 -0.553009 
2.288182 4.521175 3.418918 46.540490 -7.632050 -0.196167 
2.281287 4.510859 3.398927 46.097850 -6.638763 0.108721 
2.274311 4.500873 3.379999 45.566570 -5.565857 0.238455 
2.268583 4.490084 3.362266 45.059790 -4.666748 0.445042 
2.262939 4.478663 3.345425 44.363100 -3.865601 0.549919 
2.257980 4.466476 3.329804 43.731660 -3.101013 0.628306 
2.253377 4.454368 3.315268 43.005810 -2.326019 0.477076 
2.248500 4.441576 3.301268 42.408810 -1.760925 0.268754 
2.243371 4.427598 3.287676 41.856170 -1.291351 0.131063 
2.238338 4.412556 3.274359 41.324490 -0.864197 -0.143250 
2.232315 4.396476 3.262005 40.965400 -0.616455 -0.320557 
2.226241 4.379382 3.250147 40.647450 -0.290649 -0.555603 
2.219127 4.361445 3.238717 40.488500 -0.239105 -0.742828 
2.211547 4.342388 3.227638 40.403210 -0.167023 -0.927643 
2.203221 4.322352 3.218100 40.378410 0.035182 -1.094086 
2.195064 4.301407 3.209573 40.545580 0.063990 -1.148651 
2.186901 4.280476 3.202023 40.750730 0.087292 -1.208466 
2.179259 4.258832 3.195566 41.033840 0.005665 -1.208649 
2.172112 4.237726 3.189861 41.232330 -0.040436 -1.327057 
2.165429 4.216807 3.184550 41.446520 -0.244263 -1.393524 
2.158722 4.196450 3.180551 41.622460 -0.542419 -1.579559 
2.152548 4.176181 3.176765 41.735090 -0.979797 -1.643219 
2.146363 4.156273 3.174095 41.868420 -1.454193 -1.806366 
2.140232 4.136196 3.171658 41.936500 -1.967804 -1.927490 
2.133899 4.116362 3.169617 42.029420 -2.497589 -2.008942 
2.128155 4.095912 3.168252 42.107340 -3.114349 -2.103577 
2.122633 4.075488 3.167175 42.229270 -3.737488 -2.179108 
2.117109 4.055050 3.165936 42.220960 -4.353058 -2.343842 
2.112113 4.034786 3.164668 42.216650 -4.986542 -2.465240 
2.107649 4.014865 3.163363 42.108910 -5.624573 -2.644592 
2.103872 3.994859 3.162190 42.017700 -6.158569 -2.804260 
2.099933 3.976083 3.160634 41.747340 -6.609711 -3.054199 
2.096239 3.957928 3.158946 41.559700 -7.142242 -3.259460 
2.092470 3.939997 3.157119 41.362000 -7.512573 -3.496887 
2.088754 3.922205 3.154621 41.204110 -7.882172 -3.650024 
2.084807 3.905263 3.151577 41.045120 -8.212799 -3.856537 
2.081032 3.888781 3.148126 40.922410 -8.529724 -4.063110 
2.077101 3.872905 3.144253 40.737130 -8.724121 -4.228607 
2.074118 3.856762 3.140686 40.610270 -8.804810 -4.405090 
2.070912 3.842112 3.136483 40.247480 -8.981873 -4.670258 
2.068085 3.828020 3.132319 39.912440 -9.086823 -4.818512 
2.065280 3.814872 3.127672 39.513450 -9.056702 -5.007111 
2.062111 3.802438 3.122882 39.020100 -9.167877 -5.219971 
2.060142 3.790404 3.118146 38.682020 -9.121857 -5.336090 
2.056360 3.779537 3.113199 38.192050 -9.100311 -5.474365 
